<svg xmlns="http://www.w3.org/2000/svg" viewBox="0 0 72 72"><defs><mask id="a"><path fill="#fff" d="M0 0h720v720H0z"/></mask></defs><g mask="url(#a)" transform="scale(.1)"><path d="M377.5 395.3h64.8v129.6h28.8V395.3h64.8v-28.8H377.5zM338.9 363.6 276.4 426 214 363.6 193.6 384l62.5 62.4-62.5 62.4 20.4 20.4 62.4-62.4 62.5 62.4 20.3-20.4-62.4-62.4 62.4-62.4zM454.7 345.8c44.8 0 81-36.3 81-81h-28.8c0 28.8-23.3 52.2-52.2 52.2-8.2 0-16-1.9-22.9-5.3l69.8-69.9 21.1-21c-14.4-22.3-39.5-37-68-37-44.7 0-81 36.2-81 81 0 44.7 36.3 81 81 81m0-133.2c10.2 0 19.6 2.9 27.6 7.9l-71.9 71.8c-5-8-7.9-17.4-7.9-27.5 0-28.9 23.4-52.2 52.2-52.2M276.4 255.9l-60.7-72.8-22.1 18.6 68.4 82v62.4h28.8v-62.6l68.4-81.8-22-18.6z"/></g><path fill="none" stroke="#000" stroke-width="2.931" d="M35.98 1.484c19.071 0 34.556 15.485 34.556 34.556S55.051 70.596 35.98 70.596 1.424 55.111 1.424 36.04 16.909 1.484 35.98 1.484Z"/></svg>