<svg xmlns="http://www.w3.org/2000/svg" viewBox="0 0 32 35"><path d="m11.585 31.056 8.38-.493v-.986l-8.38.493zm0 1.972L15.775 35l4.19-1.972V31.55l-8.38.493zm6.926-.407-2.736 1.29-2.13-1.004zM15.775 7.394c-4.63 0-8.38 3.205-8.38 8.38 0 5.177 4.19 6.902 4.19 12.818v.493l8.38-.493c0-5.916 4.19-8.188 4.19-12.817a8.38 8.38 0 0 0-8.38-8.38zm5.617 13.48c-1.025 1.837-2.174 3.892-2.381 6.786l-6.44.38c-.129-3.01-1.29-5.021-2.32-6.808a19 19 0 0 1-1.299-2.5h13.556c-.325.708-.704 1.403-1.116 2.142m1.479-3.128H8.627a7.8 7.8 0 0 1-.247-1.971c0-4.353 3.042-7.395 7.395-7.395a7.394 7.394 0 0 1 7.394 7.395 6.7 6.7 0 0 1-.3 1.971zm3.749-2.464h4.93v1h-4.93zm-3.526-7.526 2.091-2.091.698.697-2.092 2.092zM15.282 0h1v4.93h-1zM5.666 6.362l.697-.697 2.091 2.091-.697.697zM0 15.282h4.93v1H0z"/></svg>